<?xml version="1.0" standalone="yes"?>
<svg xmlns="http://www.w3.org/2000/svg" width="250" height="90" onCopy="return false">
<path style="fill:#ffffff; stroke:none;" d="M0 0L0 90L250 90L250 0L0 0z"/>
<path style="fill:#4eaced; stroke:none;" d="M64 2L64 7C74.2644 7 84.7948 7.89525 95 7.54089C111.128 6.9809 128.962 3.18173 145 7C145.562 5.19942 145.824 3.87815 146 2L64 2z"/>
<path style="fill:#88ac98; stroke:none;" d="M146 2L146 6C146.71 4.24051 146.71 3.75948 146 2z"/>
<path style="fill:#efab00; stroke:none;" d="M147 2C144.969 13.3965 134.63 21.9588 126.715 29.6998C124.562 31.8061 121.681 33.4896 120.179 36.1736C117.784 40.4539 119 47.2507 119 52C126.388 52.579 133.587 54.5764 141 54.5301C144.484 54.5083 146.977 55.0332 149 52L152 54C159.625 50.3375 164.267 60.3376 158.682 65.6636C155.687 68.5203 149.838 66.8081 146 67L146 88L162 88L162 2L147 2z"/>
<path style="fill:#46a2e5; stroke:none;" d="M96 7C100.72 8.98056 106.92 8 112 8L145 8C140.923 4.911 134.941 6 130 6C118.579 6 107.361 6.10336 96 7z"/>
<path style="fill:#9da876; stroke:none;" d="M145.333 6.66666C145.278 6.72225 145.222 7.77777 145.667 7.33334C145.722 7.27781 145.778 6.22219 145.333 6.66666z"/>
<path style="fill:#439ee9; stroke:none;" d="M64 7L64 9C73.9967 9 86.381 11.0841 96 9C87.9672 4.1881 73.1726 7 64 7z"/>
<path style="fill:#3f98de; stroke:none;" d="M95 9C99.7199 10.9806 105.92 10 111 10L144 10L144 8L113 8C107.06 8 100.725 7.30775 95 9z"/>
<path style="fill:#6d9ea4; stroke:none;" d="M144 8L145 9L144 8z"/>
<path style="fill:#2e83e0; stroke:none;" d="M64 9L64 21L90 21L94 10C84.4765 7.73265 73.7529 9 64 9z"/>
<path style="fill:#a1a46b; stroke:none;" d="M144 9L145 10L144 9z"/>
<path style="fill:#348ad0; stroke:none;" d="M92 15L129 15C135.158 15 140.637 15.9945 144 10L107 10C100.789 10 95.0259 8.63911 92 15z"/>
<path style="fill:#a9a25d; stroke:none;" d="M143 11L144 12L143 11z"/>
<path style="fill:#b3a14f; stroke:none;" d="M142 13L143 14L142 13z"/>
<path style="fill:#b9a145; stroke:none;" d="M141 14L142 15L141 14z"/>
<path style="fill:#2a7dc5; stroke:none;" d="M90 20L126 20C131.803 20 137.067 20.8159 140 15L103 15C97.4405 15 92.2111 13.9862 90 20z"/>
<path style="fill:#baa03e; stroke:none;" d="M140 15L141 16L140 15z"/>
<path style="fill:#1865ad; stroke:none;" d="M89 23C99.5639 23 109.438 25 120 25C126.566 25 131.699 25.6455 136 20L102 20C97.4285 20 91.7404 18.7729 89 23z"/>
<path style="fill:#2477db; stroke:none;" d="M64 21L64 24C67.5792 24.0004 71.5791 23.5829 74.9853 24.8927C80.1151 26.8654 82.0995 29.9301 88 30L89 21L64 21z"/>
<path style="fill:#0d57a0; stroke:none;" d="M105 30C104.438 31.8006 104.176 33.1218 104 35C115.156 35 123.782 34.8006 131 25C123.8 25 116.191 25.7108 109.039 24.8711C103.224 24.1883 97.2551 21.478 91.2284 23.3179C87.8019 24.364 87.7527 28.4612 91.1489 29.5664C95.2495 30.9008 100.722 30 105 30z"/>
<path style="fill:#cb360a; stroke:none;" d="M64 24L64 53C71.4027 44.0742 71 34.9565 71 24L64 24z"/>
<path style="fill:#bd2e0e; stroke:none;" d="M71 24L71 41L78 36C79.0944 39.9975 79.6578 42.2759 84 43C82.9089 34.5578 80.4645 25.5076 71 24z"/>
<path style="fill:#824c5f; stroke:none;" d="M74 24L75 25L74 24z"/>
<path style="fill:#724f71; stroke:none;" d="M77 25L78 26L77 25z"/>
<path style="fill:#6e4c73; stroke:none;" d="M78 26L79 27L78 26z"/>
<path style="fill:#775170; stroke:none;" d="M79.3333 27.6667C79.2777 27.7223 79.2222 28.7778 79.6667 28.3333C79.7222 28.2778 79.7778 27.2222 79.3333 27.6667z"/>
<path style="fill:#7b4b65; stroke:none;" d="M80.3333 29.6667C80.2778 29.7222 80.2222 30.7778 80.6667 30.3333C80.7222 30.2778 80.7778 29.2222 80.3333 29.6667z"/>
<path style="fill:#064c92; stroke:none;" d="M88 29L88 41L84 41C85.1894 43.7067 86.1773 45.0656 89 46L89 38C93.4385 38 97.6622 37.9673 102 39L105 30C99.2429 30 93.6788 30.0543 88 29z"/>
<path style="fill:#c19b24; stroke:none;" d="M127 29L128 30L127 29z"/>
<path style="fill:#0f5dca; stroke:none;" d="M81 30C82.3408 33.7252 83.7439 37.0134 84 41L88 41L88 30L81 30z"/>
<path style="fill:#506f7a; stroke:none;" d="M125 30L126 31L125 30z"/>
<path style="fill:#ba9725; stroke:none;" d="M126 30L127 31L126 30z"/>
<path style="fill:#41579d; stroke:none;" d="M81 31L82 32L81 31z"/>
<path style="fill:#b5972e; stroke:none;" d="M124 31L125 32L124 31z"/>
<path style="fill:#834758; stroke:none;" d="M81 32L82 33L81 32z"/>
<path style="fill:#b6972d; stroke:none;" d="M123 32L124 33L123 32z"/>
<path style="fill:#777f60; stroke:none;" d="M121 33L122 34L121 33z"/>
<path style="fill:#af942f; stroke:none;" d="M122 33L123 34L122 33z"/>
<path style="fill:#8b434e; stroke:none;" d="M82 34L83 35L82 34z"/>
<path style="fill:#356380; stroke:none;" d="M119.333 34.6667C119.278 34.7222 119.222 35.7778 119.667 35.3333C119.722 35.2778 119.778 34.2222 119.333 34.6667z"/>
<path style="fill:#af9535; stroke:none;" d="M120 34L121 35L120 34z"/>
<path style="fill:#3154a6; stroke:none;" d="M83 35L83 40C83.8299 37.9695 83.8299 37.0305 83 35z"/>
<path style="fill:#0950aa; stroke:none;" d="M101 42C108.602 42 115.21 42.789 119 35C111.465 35 102.699 32.7302 101 42z"/>
<path style="fill:#a62413; stroke:none;" d="M90 87C87.0304 83.9866 83.1637 82.1738 80.3256 78.9568C76.0708 74.1339 69.1076 59.8227 77.1466 55.0278C79.1714 53.8201 81.7431 54.0267 84 54C84.467 50.3045 84.9691 46.7352 85 43C80.4575 42.2757 79.537 40.0943 78 36C54.0647 48.4511 63.3933 86.4332 90 87z"/>
<path style="fill:#b79730; stroke:none;" d="M119 36L120 37L119 36z"/>
<path style="fill:#ba2500; stroke:none;" d="M118 37L118 52C119.74 47.8523 119.74 41.1477 118 37z"/>
<path style="fill:#033f83; stroke:none;" d="M89 38L89 46C86.8764 45.1007 86.8993 45.1236 86 43C85.0155 45.3316 85.0187 47.4567 85 50C91.3508 50.4831 93.2505 54.7815 96 60C97.862 55.6135 97.5657 50.6285 98.4853 46C99.0312 43.2528 100.381 40.741 101 38L89 38z"/>
<path style="fill:#841025; stroke:none;" d="M116.667 38.3333C116.222 38.7778 117.278 38.7222 117.333 38.6667C117.778 38.2222 116.722 38.2778 116.667 38.3333z"/>
<path style="fill:#aa0000; stroke:none;" d="M86 62C89.0794 73.3754 98.4111 75.5936 109 72.571C111.865 71.7533 115.382 70.8009 117.397 68.4421C120.606 64.6836 118.876 56.7216 120 52C117.206 48.3116 118 43.481 118 39C114.436 40.6865 112.18 43.5858 108.91 45.7168C106.176 47.4992 102.685 48.1598 100.279 50.429C97.3066 53.2329 98.6046 56.5774 96.8171 59.6821C94.9118 62.9915 89.1936 61.9996 86 62z"/>
<path style="fill:#05489c; stroke:none;" d="M100 41C98.5223 44.0678 98.0788 46.6024 98 50C103.171 48.2736 110.001 46.7343 113 42C108.562 42 104.338 42.0327 100 41z"/>
<path style="fill:#183b81; stroke:none;" d="M102 47C103.769 47.7789 105.036 47.9124 107 48C105.231 47.2211 103.964 47.0876 102 47z"/>
<path style="fill:#75152f; stroke:none;" d="M102 48L103 49L102 48z"/>
<path style="fill:#721836; stroke:none;" d="M100 49L101 50L100 49z"/>
<path style="fill:#1e4087; stroke:none;" d="M84 50L84 57C85.0595 54.4657 85.0595 52.5343 84 50z"/>
<path style="fill:#03419a; stroke:none;" d="M85 50C85.0066 59.9873 87.4004 61 97 61C94.2201 55.046 92.0812 50.2319 85 50z"/>
<path style="fill:#711731; stroke:none;" d="M99 50L100 51L99 50z"/>
<path style="fill:#701836; stroke:none;" d="M98 51L99 52L98 51z"/>
<path style="fill:#671d42; stroke:none;" d="M97 52L97 55C97.6961 53.4463 97.6961 53.5537 97 52z"/>
<path style="fill:#ac8e26; stroke:none;" d="M120 52C121.506 52.683 122.315 52.8259 124 53C122.494 52.317 121.685 52.1741 120 52z"/>
<path style="fill:#bb9525; stroke:none;" d="M128.667 52.3333C128.222 52.7778 129.278 52.7222 129.333 52.6667C129.778 52.2222 128.722 52.2778 128.667 52.3333z"/>
<path style="fill:#dd8200; stroke:none;" d="M149.667 52.3333C149.222 52.7778 150.278 52.7222 150.333 52.6667C150.778 52.2222 149.722 52.2778 149.667 52.3333z"/>
<path style="fill:#af8e28; stroke:none;" d="M153 52C154.769 52.7789 156.036 52.9124 158 53C156.231 52.2211 154.964 52.0876 153 52z"/>
<path style="fill:#722a36; stroke:none;" d="M119 53L120 54L119 53z"/>
<path style="fill:#034485; stroke:none;" d="M120 53C120 57.5355 119.413 62.5349 120.275 67C120.96 70.5513 123.217 73.5387 124.211 77C125.233 80.5626 125 84.3341 125 88L145 88C145 80.9248 144.034 73.0645 145.259 66.0895C145.759 63.245 148.18 59.4573 145.971 56.7446C144.223 54.5971 140.51 55.2164 138.09 55.196C132.037 55.145 126.142 53.2135 120 53z"/>
<path style="fill:#5a655c; stroke:none;" d="M125 53L126 54L125 53z"/>
<path style="fill:#8c813c; stroke:none;" d="M126.667 53.3333C126.222 53.7777 127.278 53.7223 127.333 53.6667C127.778 53.2222 126.722 53.2778 126.667 53.3333z"/>
<path style="fill:#73734b; stroke:none;" d="M130 53L131 54L130 53z"/>
<path style="fill:#aa0000; stroke:none;" d="M146 67L150 67C150 62.2306 150.127 57.7001 151 53C146.684 55.4389 146.572 62.2838 146 67z"/>
<path style="fill:#74804e; stroke:none;" d="M152 53L153 54L152 53z"/>
<path style="fill:#03468b; stroke:none;" d="M153.6 54.0471C149.69 56.9392 152.194 70.7483 158.397 65.9676C162.231 63.0132 159.203 49.9014 153.6 54.0471z"/>
<path style="fill:#b19027; stroke:none;" d="M158.667 53.3333C158.222 53.7778 159.278 53.7222 159.333 53.6667C159.778 53.2222 158.722 53.2778 158.667 53.3333z"/>
<path style="fill:#c23c0e; stroke:none;" d="M76 54C78.6127 55.0977 81.1645 54.9928 84 55C81.3873 53.9023 78.8355 54.0072 76 54z"/>
<path style="fill:#3e2d57; stroke:none;" d="M119 54L119 68C120.667 64.0279 120.667 57.9721 119 54z"/>
<path style="fill:#8b7f3c; stroke:none;" d="M131 54C132.506 54.683 133.315 54.8259 135 55C133.494 54.317 132.685 54.1741 131 54z"/>
<path style="fill:#867d3c; stroke:none;" d="M136 54C137.248 54.6848 137.548 54.7488 139 55C137.752 54.3152 137.452 54.2512 136 54z"/>
<path style="fill:#877e3c; stroke:none;" d="M141 54C142.506 54.683 143.315 54.8259 145 55C143.494 54.317 142.685 54.1741 141 54z"/>
<path style="fill:#a64c24; stroke:none;" d="M151 54L152 55L151 54z"/>
<path style="fill:#224f75; stroke:none;" d="M159.333 54.6667C159.278 54.7222 159.222 55.7778 159.667 55.3333C159.722 55.2777 159.778 54.2222 159.333 54.6667z"/>
<path style="fill:#ec6504; stroke:none;" d="M75 55L75 58L84 58L84 55L75 55z"/>
<path style="fill:#727446; stroke:none;" d="M135 55L136 56L135 55z"/>
<path style="fill:#69704b; stroke:none;" d="M139.667 55.3333C139.222 55.7778 140.278 55.7222 140.333 55.6667C140.778 55.2222 139.722 55.2778 139.667 55.3333z"/>
<path style="fill:#9a752b; stroke:none;" d="M145.667 55.3333C145.222 55.7778 146.278 55.7222 146.333 55.6667C146.778 55.2222 145.722 55.2778 145.667 55.3333z"/>
<path style="fill:#c10000; stroke:none;" d="M150 55L150 66C151.431 62.59 151.431 58.41 150 55z"/>
<path style="fill:#4d2a52; stroke:none;" d="M151 55L151 66C152.431 62.59 152.431 58.41 151 55z"/>
<path style="fill:#d59f13; stroke:none;" d="M160 55L160 65C161.346 61.793 161.346 58.207 160 55z"/>
<path style="fill:#e24905; stroke:none;" d="M74 56L74 64C75.1614 61.2301 75.1614 58.7699 74 56z"/>
<path style="fill:#a55c36; stroke:none;" d="M84 57L85 58L84 57z"/>
<path style="fill:#801229; stroke:none;" d="M97 57L97 61C97.7102 59.2405 97.7102 58.7595 97 57z"/>
<path style="fill:#76192f; stroke:none;" d="M147 57L148 58L147 57z"/>
<path style="fill:#ff8100; stroke:none;" d="M75 58C75.0004 61.3307 74.7505 64.7793 75.7539 68C77.0539 72.1731 79.6608 76.3864 83.1728 79.0417C84.6502 80.1587 87.288 81.8608 88.9722 80.1489C92.7397 76.3194 88.0657 67.8749 86.814 64.0046C86.2493 62.2583 85.857 60.2058 84.2971 59.0278C81.9678 57.2687 77.7394 58.0003 75 58z"/>
<path style="fill:#452a52; stroke:none;" d="M147 58L147 62C147.71 60.2405 147.71 59.7595 147 58z"/>
<path style="fill:#b9682b; stroke:none;" d="M85 59L86 60L85 59z"/>
<path style="fill:#850f22; stroke:none;" d="M86 61C89.4324 62.4403 93.2998 62 97 62C93.5676 60.5597 89.7002 61 86 61z"/>
<path style="fill:#393160; stroke:none;" d="M145 63L145 67C145.71 65.2405 145.71 64.7595 145 63z"/>
<path style="fill:#d72004; stroke:none;" d="M74 64C74.1688 71.8814 77.6358 78.3023 84 83C84.1061 78.6185 80.8596 76.479 78.4684 72.9853C76.5371 70.1638 75.6155 66.9508 74 64z"/>
<path style="fill:#cb360a; stroke:none;" d="M64 66L64 88L70 88C70 79.7901 69.1243 72.7694 64 66z"/>
<path style="fill:#d36800; stroke:none;" d="M150 66L151 67L150 66z"/>
<path style="fill:#646f57; stroke:none;" d="M152 66L153 67L152 66z"/>
<path style="fill:#4d625f; stroke:none;" d="M145 67L145 88C147.153 82.8692 147.153 72.1308 145 67z"/>
<path style="fill:#c6991b; stroke:none;" d="M153 67C154.769 67.7789 156.036 67.9124 158 68C156.231 67.2211 154.964 67.0876 153 67z"/>
<path style="fill:#ffbb00; stroke:none;" d="M106 74C108.207 78.0662 107.35 80.4 103 82C105.918 83.0132 108.134 82.041 111 81L111 88L124 88C124 80.5701 123.177 74.7929 120 68C115.109 69.5208 110.891 72.4792 106 74z"/>
<path style="fill:#ea4701; stroke:none;" d="M76.3333 69.6667C76.2778 69.7222 76.2222 70.7778 76.6667 70.3333C76.7222 70.2778 76.7778 69.2222 76.3333 69.6667z"/>
<path style="fill:#bea323; stroke:none;" d="M121.333 70.6667C121.278 70.7222 121.222 71.7778 121.667 71.3333C121.722 71.2778 121.778 70.2222 121.333 70.6667z"/>
<path style="fill:#ffa700; stroke:none;" d="M90 71C89.9969 75.0521 90.0041 78.3964 88 82C93.1264 84.467 98.418 84 104 84C104 80.6139 108.756 81.7621 108 77C107.82 75.8668 107.377 74.6101 106 74.5C103.293 74.2835 100.742 75.5805 98 74.6667C95.0821 73.694 93.0874 71.65 90 71z"/>
<path style="fill:#be3200; stroke:none;" d="M109.667 72.3333C109.222 72.7778 110.278 72.7222 110.333 72.6667C110.778 72.2222 109.722 72.2778 109.667 72.3333z"/>
<path style="fill:#bda324; stroke:none;" d="M122.333 72.6667C122.278 72.7222 122.222 73.7778 122.667 73.3333C122.722 73.2778 122.778 72.2222 122.333 72.6667z"/>
<path style="fill:#c53b00; stroke:none;" d="M105 73C106.506 73.683 107.315 73.8259 109 74C107.494 73.317 106.685 73.1741 105 73z"/>
<path style="fill:#c93b00; stroke:none;" d="M97 74C98.5061 74.6831 99.3148 74.8259 101 75C99.494 74.317 98.6852 74.1741 97 74z"/>
<path style="fill:#ea7c00; stroke:none;" d="M101.667 74.3333C101.222 74.7778 102.278 74.7222 102.333 74.6667C102.778 74.2222 101.722 74.2778 101.667 74.3333z"/>
<path style="fill:#c23f00; stroke:none;" d="M103.667 74.3333C103.222 74.7778 104.278 74.7222 104.333 74.6667C104.778 74.2222 103.722 74.2778 103.667 74.3333z"/>
<path style="fill:#958b3a; stroke:none;" d="M123 74L123 77C123.696 75.4463 123.696 75.5537 123 74z"/>
<path style="fill:#465e69; stroke:none;" d="M124 77L125 78L124 77z"/>
<path style="fill:#bd2e0f; stroke:none;" d="M70 78L70 88L98 88C93.5 86.0631 88.629 87.4837 84 86.186C78.7805 84.7227 74.452 80.9075 70 78z"/>
<path style="fill:#8a833e; stroke:none;" d="M124 78L124 88C125.346 84.793 125.346 81.207 124 78z"/>
<path style="fill:#e23b03; stroke:none;" d="M84 82C87.1438 85.1744 90.5754 86.5468 95 87C92.6528 83.1184 88.4257 81.4783 84 82z"/>
<path style="fill:#fd8e00; stroke:none;" d="M107 82C108.17 84.0749 108.692 85.6371 109 88L111 88L111 81L107 82z"/>
<path style="fill:#f77b01; stroke:none;" d="M104 83L104 88L109 88L109 83L104 83z"/>
<path style="fill:#f26802; stroke:none;" d="M94 84C96.3315 84.9845 98.4567 84.9813 101 85C99.8137 86.1863 99.4721 86.5838 99 88L104 88L105 84L94 84z"/>
<path style="fill:#ea5402; stroke:none;" d="M95 85C97.0639 87.5904 98.6847 87.1043 101 85L95 85z"/>
</svg>
